<?xml version="1.0" encoding="UTF-8"?>
<svg xmlns="http://www.w3.org/2000/svg" xmlns:xlink="http://www.w3.org/1999/xlink" width="50pt" height="50pt" viewBox="0 0 50 50" version="1.1">
<g id="surface1">
<path style=" stroke:none;fill-rule:nonzero;fill:#020202;fill-opacity:1;" d="M 17.855469 6.945313 C 8 6.945313 0 14.941406 0 24.800781 C 0 34.660156 8 42.660156 17.855469 42.660156 C 19.070313 42.660156 20.25 42.515625 21.390625 42.285156 C 22.433594 42.472656 23.59375 42.660156 24.800781 42.660156 C 26.015625 42.660156 27.191406 42.515625 28.335938 42.285156 C 29.378906 42.472656 30.535156 42.660156 31.746094 42.660156 C 41.605469 42.660156 49.601563 34.660156 49.601563 24.800781 C 49.601563 14.941406 41.605469 6.945313 31.746094 6.945313 C 30.601563 6.945313 29.457031 7.046875 28.335938 7.316406 C 27.191406 7.085938 26.015625 6.945313 24.800781 6.945313 C 23.660156 6.945313 22.511719 7.046875 21.390625 7.316406 C 20.25 7.085938 19.070313 6.945313 17.855469 6.945313 Z M 17.855469 8.929688 C 18.890625 8.929688 19.886719 9.023438 20.863281 9.207031 C 21.035156 9.304688 21.230469 9.347656 21.421875 9.332031 C 28.480469 10.949219 33.730469 17.242188 33.730469 24.800781 C 33.730469 32.382813 28.449219 38.679688 21.359375 40.273438 C 21.199219 40.277344 21.039063 40.316406 20.894531 40.394531 C 19.90625 40.585938 18.902344 40.675781 17.855469 40.675781 C 9.066406 40.675781 1.984375 33.589844 1.984375 24.800781 C 1.984375 16.011719 9.066406 8.929688 17.855469 8.929688 Z M 26.164063 9.023438 C 26.71875 9.066406 27.269531 9.101563 27.808594 9.207031 C 27.980469 9.304688 28.171875 9.347656 28.367188 9.332031 C 35.421875 10.949219 40.675781 17.242188 40.675781 24.800781 C 40.675781 32.382813 35.394531 38.679688 28.304688 40.273438 C 28.140625 40.277344 27.984375 40.316406 27.839844 40.394531 C 27.292969 40.5 26.730469 40.535156 26.164063 40.582031 C 31.84375 37.589844 35.714844 31.664063 35.714844 24.800781 C 35.714844 17.9375 31.84375 12.011719 26.164063 9.023438 Z M 33.109375 9.023438 C 41.253906 9.71875 47.617188 16.476563 47.617188 24.800781 C 47.617188 33.125 41.253906 39.882813 33.109375 40.582031 C 38.789063 37.589844 42.660156 31.664063 42.660156 24.800781 C 42.660156 17.9375 38.789063 12.011719 33.109375 9.023438 Z M 16.863281 13.890625 L 16.863281 16.058594 C 15.277344 16.257813 12.402344 17.648438 12.402344 21.019531 C 12.402344 27.367188 21.640625 24.101563 21.640625 28.863281 C 21.640625 30.453125 20.933594 31.933594 17.855469 31.933594 C 14.78125 31.933594 13.890625 29.5625 13.890625 28.273438 L 11.90625 28.273438 C 12.203125 32.539063 15.179688 33.523438 16.863281 33.824219 L 16.863281 35.714844 L 18.847656 35.714844 L 18.847656 33.824219 C 20.335938 33.722656 23.808594 32.644531 23.808594 28.675781 C 23.808594 25.402344 21.121094 24.5 18.539063 23.902344 C 16.453125 23.40625 14.570313 22.917969 14.570313 20.832031 C 14.570313 19.941406 14.972656 17.949219 17.949219 17.949219 C 20.035156 17.949219 21.03125 19.246094 21.328125 20.832031 L 23.3125 20.832031 C 22.714844 18.652344 21.726563 16.679688 18.847656 16.183594 L 18.847656 13.890625 Z "/>
</g>
</svg>
