<?xml version="1.0" encoding="UTF-8"?>
<svg xmlns="http://www.w3.org/2000/svg" xmlns:xlink="http://www.w3.org/1999/xlink" width="50pt" height="50pt" viewBox="0 0 50 50" version="1.1">
<g id="surface1">
<path style=" stroke:none;fill-rule:nonzero;fill:#020202;fill-opacity:1;" d="M 22.816406 5.953125 L 22.816406 9.082031 C 19.414063 9.625 17.214844 11.511719 16.136719 13.402344 C 14.863281 15.632813 14.882813 17.855469 14.882813 17.855469 C 14.882813 20.679688 16.363281 22.894531 18.222656 24.171875 C 20.078125 25.453125 22.226563 26.074219 24.210938 26.691406 C 26.195313 27.3125 28.015625 27.933594 29.132813 28.699219 C 30.253906 29.46875 30.753906 30.101563 30.753906 31.746094 C 30.753906 31.746094 30.734375 32.992188 30.027344 34.234375 C 29.3125 35.472656 28.191406 36.707031 24.800781 36.707031 C 21.496094 36.707031 20.386719 35.347656 19.632813 33.835938 C 18.875 32.324219 18.847656 30.753906 18.847656 30.753906 L 14.882813 30.753906 C 14.882813 30.753906 14.855469 33.152344 16.082031 35.609375 C 17.125 37.695313 19.34375 39.875 22.816406 40.496094 L 22.816406 43.652344 L 26.785156 43.652344 L 26.785156 40.519531 C 30.1875 39.976563 32.390625 38.089844 33.464844 36.203125 C 34.742188 33.96875 34.722656 31.746094 34.722656 31.746094 C 34.722656 28.925781 33.238281 26.707031 31.382813 25.429688 C 29.527344 24.152344 27.375 23.53125 25.390625 22.910156 C 23.40625 22.289063 21.589844 21.671875 20.46875 20.902344 C 19.347656 20.136719 18.847656 19.5 18.847656 17.855469 C 18.847656 17.855469 18.867188 16.609375 19.578125 15.371094 C 20.289063 14.128906 21.410156 12.898438 24.800781 12.898438 C 28.105469 12.898438 29.214844 14.257813 29.972656 15.769531 C 30.726563 17.28125 30.753906 18.847656 30.753906 18.847656 L 34.722656 18.847656 C 34.722656 18.847656 34.75 16.449219 33.519531 13.992188 C 32.476563 11.910156 30.257813 9.726563 26.785156 9.105469 L 26.785156 5.953125 Z M 40.628906 8.921875 C 40.226563 8.933594 39.871094 9.191406 39.734375 9.566406 C 39.59375 9.949219 39.699219 10.375 39.996094 10.644531 L 45.601563 15.871094 L 36.332031 15.871094 C 36.496094 16.550781 36.605469 17.21875 36.660156 17.855469 L 45.601563 17.855469 L 39.996094 23.085938 C 39.722656 23.320313 39.597656 23.691406 39.671875 24.050781 C 39.75 24.40625 40.015625 24.691406 40.367188 24.792969 C 40.71875 24.894531 41.097656 24.792969 41.351563 24.535156 L 49.566406 16.863281 L 41.351563 9.195313 C 41.160156 9.011719 40.898438 8.910156 40.628906 8.921875 Z M 1.984375 15.871094 C 1.433594 15.871094 0.992188 16.316406 0.992188 16.863281 C 0.992188 17.414063 1.433594 17.855469 1.984375 17.855469 L 12.898438 17.855469 C 12.898438 17.230469 12.96875 16.558594 13.105469 15.871094 Z M 8.910156 24.789063 C 8.648438 24.796875 8.40625 24.90625 8.226563 25.09375 L 0.582031 32.738281 L 8.226563 40.382813 C 8.476563 40.644531 8.847656 40.75 9.191406 40.65625 C 9.539063 40.566406 9.8125 40.292969 9.902344 39.945313 C 9.996094 39.601563 9.890625 39.230469 9.628906 38.980469 L 4.378906 33.730469 L 13.273438 33.730469 C 13.105469 33.050781 12.996094 32.386719 12.941406 31.746094 L 4.378906 31.746094 L 9.628906 26.496094 C 9.925781 26.207031 10.011719 25.773438 9.851563 25.398438 C 9.691406 25.019531 9.320313 24.777344 8.910156 24.789063 Z M 36.707031 31.746094 C 36.707031 32.375 36.632813 33.042969 36.496094 33.730469 L 48.113281 33.730469 C 48.664063 33.730469 49.105469 33.289063 49.105469 32.738281 C 49.105469 32.1875 48.664063 31.746094 48.113281 31.746094 Z "/>
</g>
</svg>
