<svg width="35" height="29" viewBox="0 0 35 29" fill="none" xmlns="http://www.w3.org/2000/svg">
    <path d="M1 12L1.15155 12.1516M1.15155 12.1516L5 16L6 14L7.5 13.5L11 9.5L28.5 27.5H29.5L32.5 24.5V23.5L14.5 6.5L18 2.5L18.5 1.5H19.5H12.5L1.15155 12.1516Z" stroke="black" stroke-width="2" stroke-linecap="round" stroke-linejoin="round"/>
    <path d="M23.5 14.5L25 13.5H30L33 10.5L33.5 9L34 7.5L33.5 4.5L30.5 7.5L29.5 8.5H28.5H27.5L27 7.5V6L30 2.5L30.5 1.5H27.5H26L24.5 2.5L21.5 6.5V7.5L22.5 10.5L20 12M16.5 15.5L7.5 24.5L11.5 28L20 19" stroke="black" stroke-width="2" stroke-linecap="round" stroke-linejoin="round"/>
    <path d="M14 12.5L17.5 9.5" stroke="black" stroke-width="2"/>
</svg>
